<?xml version="1.0" encoding="UTF-8"?>
<svg version="1.1" xmlns="http://www.w3.org/2000/svg" viewBox="150 60 270 240">
<path d="M0 0 C1.08667969 0.28875 2.17335938 0.5775 3.29296875 0.875 C22.24562554 6.04600502 38.5246842 17.0325296 53 30 C54.2065625 31.06154297 54.2065625 31.06154297 55.4375 32.14453125 C71.01055223 46.68864968 81.64229297 68.06333604 86.125 88.75 C86.29676758 89.54148437 86.46853516 90.33296875 86.64550781 91.1484375 C87.96354558 97.43407005 88.81812173 103.57099865 89 110 C89.02046387 110.66467285 89.04092773 111.3293457 89.06201172 112.01416016 C89.87465873 142.17612501 81.81104519 170.20548337 63 194 C62.5575293 194.56734863 62.11505859 195.13469727 61.65917969 195.71923828 C55.51538153 203.53076535 49.01394702 210.04241768 41 216 C40.22398437 216.60199219 39.44796875 217.20398438 38.6484375 217.82421875 C12.47979464 237.29753994 -19.90465867 243.29075355 -51.81762695 239.17407227 C-73.15631831 235.91842151 -94.09422995 226.73348549 -110 212 C-110.82113281 211.31808594 -111.64226562 210.63617188 -112.48828125 209.93359375 C-119.76104577 203.79189681 -125.38949537 196.6302863 -131 189 C-131.88171875 187.80890625 -131.88171875 187.80890625 -132.78125 186.59375 C-138.60895203 178.28617477 -144.79275912 168.36204423 -145 158 C-145.66 158 -146.32 158 -147 158 C-147.19335938 156.98679688 -147.38671875 155.97359375 -147.5859375 154.9296875 C-147.84874923 153.57808432 -148.11178183 152.22652408 -148.375 150.875 C-148.50132812 150.20984375 -148.62765625 149.5446875 -148.7578125 148.859375 C-149.34358926 145.87191355 -149.98629586 143.03732651 -151.03662109 140.17651367 C-152.08268363 136.72737034 -152.25852117 133.90693661 -152.265625 130.30859375 C-152.26820313 129.03306641 -152.27078125 127.75753906 -152.2734375 126.44335938 C-152.26924805 125.78360107 -152.26505859 125.12384277 -152.26074219 124.4440918 C-152.25015958 122.46730895 -152.26162998 120.49044778 -152.2734375 118.51367188 C-152.25090515 107.28693044 -151.09241126 96.44848104 -147.8125 85.6875 C-147.59746826 84.97730713 -147.38243652 84.26711426 -147.16088867 83.53540039 C-140.36136754 61.85128381 -129.07516079 44.93249546 -113 29 C-112.15824219 28.13632813 -111.31648438 27.27265625 -110.44921875 26.3828125 C-95.64296619 12.01128584 -76.50760913 4.35018816 -57 -1 C-55.77152344 -1.34675781 -54.54304688 -1.69351563 -53.27734375 -2.05078125 C-35.88587229 -6.2638702 -16.95153887 -5.52892774 0 0 Z " fill="#B6DDA5" transform="translate(314,73)"/>
<path d="M0 0 C3.58552881 1.63687185 4.79315055 2.68972583 7 6 C7.7765752 10.74937046 7.91541162 15.50939798 5.0625 19.5625 C1.14332583 22.68184271 -2.02822117 23.44523393 -7 23 C-9.5625 21.5625 -9.5625 21.5625 -11 20 C-13.67576692 21.00617682 -14.7785108 21.54214546 -16.046875 24.1640625 C-16.27890625 24.97617188 -16.5109375 25.78828125 -16.75 26.625 C-17.11351562 27.85089844 -17.11351562 27.85089844 -17.484375 29.1015625 C-17.65453125 29.72804688 -17.8246875 30.35453125 -18 31 C-16.94425781 30.98646484 -16.94425781 30.98646484 -15.8671875 30.97265625 C-4.13624323 31.32489087 6.5167396 36.45335055 14.96875 44.57421875 C23.90457409 55.24565483 27.79519772 67.40367519 29.5625 81 C29.68544434 81.89630127 29.80838867 82.79260254 29.93505859 83.71606445 C30.86618306 90.62646855 31.66445368 97.55156308 32.35375977 104.49023438 C32.69941796 108.37000635 32.69941796 108.37000635 34 112 C35.40430435 125.95594104 34.92589849 141.18353031 25.75 152.5625 C24.53815605 153.74861478 23.28766524 154.89666312 22 156 C21.40058594 156.55042969 20.80117188 157.10085937 20.18359375 157.66796875 C7.23297239 167.93215985 -14.1136689 167.21313881 -29.77416992 167.29516602 C-31.28728632 167.3066278 -32.80036417 167.32698676 -34.31323242 167.35668945 C-54.90924815 167.75859579 -78.18060051 163.23158119 -93.75 148.75 C-108.62123266 132.65695245 -109.78234567 110.81581819 -109.17480469 90.01806641 C-108.83769407 84.19772911 -107.53808499 79.28012324 -105 74 C-104.525625 73.00613281 -104.05125 72.01226562 -103.5625 70.98828125 C-97.41592238 59.44867278 -88.3271393 49.58198635 -77 43 C-75.71222656 42.23623047 -75.71222656 42.23623047 -74.3984375 41.45703125 C-66.92300646 37.53797104 -59.11342741 35.57024714 -50.9375 33.625 C-49.84953125 33.36195068 -48.7615625 33.09890137 -47.640625 32.82788086 C-40.32947724 31.18805392 -33.48293796 30.68179204 -26 31 C-25.979375 29.700625 -25.95875 28.40125 -25.9375 27.0625 C-25.31313788 21.09321972 -22.07884553 17.22014502 -18 13 C-17.34 12.67 -16.68 12.34 -16 12 C-15.01902721 10.25070304 -15.01902721 10.25070304 -14.125 8.1875 C-10.81172146 1.4521126 -7.89466519 -1.31839339 0 0 Z " fill="#3E6330" transform="translate(318,97)"/>
<path d="M0 0 C4.69846802 1.98202794 7.59439129 4.62264676 10.03125 9.10546875 C11.61417016 13.30490534 11.846887 16.99338716 10.88671875 21.375 C8.83131471 25.78527091 6.19636738 29.20693501 2.57421875 32.4375 C-1.39539995 33.82225071 -4.96085261 34.02909938 -9.11328125 33.375 C-14.33850879 30.76238623 -18.48239997 26.63676255 -21.11328125 21.375 C-21.93807787 15.03584882 -21.37282419 10.29961965 -17.59375 5.0703125 C-12.58655315 -0.66352241 -7.17694822 -2.12257249 0 0 Z " fill="#B4DCA5" transform="translate(300.11328125,187.625)"/>
<path d="M0 0 C3.5412615 0.07712366 4.1199536 0.3831692 7.0625 2.75 C11.9765385 8.9648134 11.79858243 13.68439165 11.1875 21.4375 C9.61130686 26.16607941 7.46749524 28.8495959 3.1875 31.4375 C0.1875 32 0.1875 32 -2.8125 31.4375 C-6.5107857 28.49568183 -8.37151875 25.88796422 -9.8125 21.4375 C-11.09614527 9.51153988 -11.09614527 9.51153988 -7.9375 4.75 C-3.99377786 0.45830238 -3.99377786 0.45830238 0 0 Z " fill="#B5DDA6" transform="translate(329.8125,189.5625)"/>
<path d="M0 0 C2.81556994 0.53005669 4.69860307 1.59153773 6.9296875 3.36328125 C9.1388275 6.67699125 9.15450303 7.70788335 9.0546875 11.55078125 C9.03664063 12.45183594 9.01859375 13.35289063 9 14.28125 C8.97679687 14.96832031 8.95359375 15.65539062 8.9296875 16.36328125 C8.5996875 16.36328125 8.2696875 16.36328125 7.9296875 16.36328125 C7.9296875 13.72328125 7.9296875 11.08328125 7.9296875 8.36328125 C1.9896875 8.69328125 -3.9503125 9.02328125 -10.0703125 9.36328125 C-10.4003125 10.02328125 -10.7303125 10.68328125 -11.0703125 11.36328125 C-11.7303125 11.36328125 -12.3903125 11.36328125 -13.0703125 11.36328125 C-11.19076737 4.01596847 -7.87366835 -0.51995923 0 0 Z " fill="#5E8D47" transform="translate(316.0703125,96.63671875)"/>
</svg>
